<?xml version="1.0" encoding="UTF-8" standalone="no"?>
<!-- Created with Sodipodi ("http://www.sodipodi.com/") -->
<svg
   xmlns:dc="http://purl.org/dc/elements/1.1/"
   xmlns:cc="http://web.resource.org/cc/"
   xmlns:rdf="http://www.w3.org/1999/02/22-rdf-syntax-ns#"
   xmlns:svg="http://www.w3.org/2000/svg"
   xmlns="http://www.w3.org/2000/svg"
   xmlns:xlink="http://www.w3.org/1999/xlink"
   xmlns:sodipodi="http://sodipodi.sourceforge.net/DTD/sodipodi-0.dtd"
   xmlns:inkscape="http://www.inkscape.org/namespaces/inkscape"
   version="1.0"
   x="0"
   y="0"
   width="18"
   height="18"
   id="svg548"
   sodipodi:version="0.32"
   inkscape:version="0.43+0.44pre1"
   sodipodi:docname="notes.svg"
   sodipodi:docbase="/home/toon/unief/doctoraat/code/work/zeobuilder/share/images">
  <metadata
     id="metadata26">
    <rdf:RDF>
      <cc:Work
         rdf:about="">
        <dc:format>image/svg+xml</dc:format>
        <dc:type
           rdf:resource="http://purl.org/dc/dcmitype/StillImage" />
      </cc:Work>
    </rdf:RDF>
  </metadata>
  <sodipodi:namedview
     inkscape:window-height="725"
     inkscape:window-width="1280"
     inkscape:pageshadow="2"
     inkscape:pageopacity="0.0"
     borderopacity="1.0"
     bordercolor="#666666"
     pagecolor="#ffffff"
     id="base"
     width="18px"
     height="18px"
     gridoriginx="0.5px"
     gridoriginy="0.5px"
     showgrid="true"
     gridempspacing="6"
     inkscape:grid-bbox="true"
     gridtolerance="10000"
     inkscape:grid-points="true"
     inkscape:zoom="21.641127"
     inkscape:cx="9.14121"
     inkscape:cy="8.1835594"
     inkscape:window-x="0"
     inkscape:window-y="25"
     inkscape:current-layer="svg548" />
  <defs
     id="defs550">
    <linearGradient
       id="linearGradient575">
      <stop
         style="stop-color:#ffffff;stop-opacity:1;"
         offset="0"
         id="stop576" />
      <stop
         style="stop-color:#000000;stop-opacity:1;"
         offset="1"
         id="stop577" />
    </linearGradient>
    <linearGradient
       id="linearGradient572">
      <stop
         style="stop-color:#7f0000;stop-opacity:1;"
         offset="0"
         id="stop573" />
      <stop
         style="stop-color:#ff0000;stop-opacity:1;"
         offset="1"
         id="stop574" />
    </linearGradient>
    <linearGradient
       id="linearGradient566">
      <stop
         style="stop-color:#007f00;stop-opacity:1;"
         offset="0"
         id="stop567" />
      <stop
         style="stop-color:#00ff00;stop-opacity:1;"
         offset="1"
         id="stop568" />
    </linearGradient>
    <linearGradient
       x1="18.245981"
       y1="77.539963"
       x2="18.245981"
       y2="113.91881"
       id="linearGradient569"
       xlink:href="#linearGradient575"
       gradientTransform="matrix(0.389838,0,0,0.163564,5.262918e-2,5.262523e-2)"
       gradientUnits="userSpaceOnUse" />
    <radialGradient
       cx="0.50000006"
       cy="0.5000003"
       r="0.5"
       fx="0.50000006"
       fy="0.5000003"
       id="radialGradient570"
       xlink:href="#linearGradient566"
       gradientUnits="objectBoundingBox"
       gradientTransform="scale(0.999991,1.000009)"
       spreadMethod="pad" />
    <linearGradient
       x1="55.251868"
       y1="40.978359"
       x2="55.251868"
       y2="-121.91154"
       id="linearGradient571"
       xlink:href="#linearGradient575"
       gradientTransform="matrix(0.247039,0,0,0.258111,5.262918e-2,5.262523e-2)"
       gradientUnits="userSpaceOnUse" />
    <linearGradient
       id="linearGradient578"
       xlink:href="#linearGradient575" />
    <linearGradient
       id="linearGradient655"
       xlink:href="#linearGradient575" />
    <linearGradient
       id="linearGradient656"
       xlink:href="#linearGradient575" />
    <linearGradient
       id="linearGradient657"
       xlink:href="#linearGradient575" />
    <linearGradient
       id="linearGradient658"
       xlink:href="#linearGradient575" />
    <linearGradient
       id="linearGradient659"
       xlink:href="#linearGradient575" />
  </defs>
  <path
     d="M 17.499998,0.49999447 L 4.5263176,0.49999447 L 4.5263176,0.49999447 C 2.7368424,1.8420999 2.2894728,6.3157885 2.2894728,10.789468 C 2.2894728,14.815785 2.2894728,17.499997 1.3947377,17.499997 L 14.368411,17.499997 C 15.263147,17.499997 15.263147,14.815785 15.263147,10.789468 C 15.263147,6.3157885 15.710527,1.8420999 17.499998,0.49999447 z "
     style="font-size:12px;fill:url(#linearGradient571);fill-rule:evenodd;stroke:black;stroke-width:1.00000012;stroke-linecap:square;stroke-linejoin:round;stroke-miterlimit:4;stroke-dasharray:none"
     id="path635" />
  <path
     d="M 4.526315,3.1842055 C 4.526315,2.8902911 5.3575453,2.107389 5.4210502,2.289467 C 5.5445171,2.6434657 7.0951212,3.1020777 7.2964789,3.0069807 C 7.7292107,2.8026055 7.9093067,2.428423 8.5526306,2.289467 C 9.0952215,2.1722699 10.244802,2.1743049 10.817907,2.2338009 C 11.409137,2.2951791 12.88138,3.1663023 13.026314,3.1842055 C 13.601628,3.2552682 14.809302,2.8681532 14.912763,2.8033049 M 4.078945,5.4210458 C 4.078945,5.1120084 5.1809289,4.4944662 5.4210502,4.5263107 C 5.9694918,4.5990425 7.0209803,4.9330513 6.7631554,5.4210458 C 6.62907,5.6748382 7.7112468,4.9652948 8.1052606,4.9736783 C 8.7508344,4.9874126 8.3579797,5.2989601 8.9999981,5.4210458 C 9.4852203,5.5133147 9.9481126,4.5572538 10.342103,4.5263107 C 10.519937,4.5123442 11.395028,5.3977185 11.684209,5.4210458 C 12.304445,5.4710741 11.90193,5.2531236 12.578947,5.4210458 C 12.830517,5.4834421 13.664035,4.6015121 13.921052,4.5263107 M 3.6315775,7.6578887 C 3.7605316,7.5289294 4.3255457,6.7672191 4.526315,6.763151 C 4.9354494,6.7548636 5.9253118,7.754266 6.3157878,7.6578887 C 6.7200384,7.55811 6.8129992,7.0979324 7.2105254,7.2105211 C 7.8390596,7.3885364 8.0825923,6.8523695 8.5526306,6.763151 C 8.8071755,6.7148375 9.0438346,8.1958332 9.4473657,7.6578887 C 9.8423492,7.1313401 10.854501,7.6098174 11.236841,7.2105211 C 11.478435,6.9582135 13.310014,7.2635392 13.473681,6.763151 C 13.524171,6.6087838 12.121236,6.8234566 12.26166,6.9069455 M 3.6315775,9.894731 C 3.8029541,9.7233571 4.8732802,9.5136612 4.526315,8.9999938 C 4.4199004,8.842455 5.3550074,8.9790856 5.4210502,8.9999938 C 6.1960024,9.2453395 6.2610604,9.6472904 6.3157878,9.894731 C 6.3161211,9.8962394 6.996855,8.8790746 7.657893,8.9999938 C 8.2992322,9.1173095 7.930124,9.9166803 8.5526306,9.894731 C 9.181541,9.8725577 9.6723769,9.4849556 10.342103,9.4473613 C 11.040936,9.4081332 10.91687,8.7492418 11.684209,8.9999938 C 11.930673,9.0805334 12.784423,9.7802335 13.026314,9.4473613 C 13.259348,9.1266804 13.556398,9.0115388 13.921052,8.9999938 M 3.6315775,11.684204 C 4.1885843,11.684204 4.9534991,10.399582 5.6161934,10.764493 C 6.2351599,11.105326 6.1987549,11.242087 6.7626023,10.963692 C 7.0804778,10.806743 8.044763,11.124013 8.4717047,11.140184 C 8.9384453,11.15786 9.4147004,10.968983 9.8352159,11.207285 C 10.007024,11.304647 10.498031,11.769744 10.632314,11.469979 C 10.845805,10.993385 11.188551,10.797224 11.739126,10.815837 C 12.156994,10.829962 11.989833,10.941375 12.3157,10.75442 C 12.420375,10.694367 12.89712,10.538305 13.01866,10.56488 C 13.442142,10.657472 13.85771,10.800398 14.272764,10.921968 M 3.6315775,13.473677 C 3.9307643,13.473677 4.6527087,12.630291 4.9736827,12.578941 C 5.9317408,12.425674 5.7980394,13.084201 6.7631554,13.02631 C 7.2468977,12.997293 7.5948779,12.570747 8.1052606,12.578941 C 8.3384098,12.582684 8.3609291,13.342844 8.5526306,13.473677 C 9.2031815,13.917671 10.66612,12.540413 11.236841,12.578941 C 11.46623,12.594428 12.458204,13.325759 12.578947,13.02631 C 12.676284,12.784907 13.154463,12.548528 13.473681,12.578941"
     style="font-size:12px;fill:none;fill-rule:evenodd;stroke:#4c4c4c;stroke-width:1.00000012;stroke-linecap:round;stroke-linejoin:round;stroke-miterlimit:4;stroke-dasharray:none"
     id="path666" />
  <path
     d="M 14.368419,17.499995 C 13.473681,17.499995 13.5,15.947367 13.5,15.5 C 13.5,14.60526 14.052633,13.5 14.5,13.5 L 1.5,13.5 L 1.5,13.5 C 1.0526299,13.5 0.5,14.60526 0.5,15.5 C 0.5,15.947367 0.49999756,17.499995 1.3947377,17.499995 L 1.3947377,17.499995 L 14.368419,17.499995 z "
     style="font-size:12px;fill:url(#linearGradient569);fill-rule:evenodd;stroke:black;stroke-width:1.00000012;stroke-linecap:square;stroke-linejoin:round;stroke-miterlimit:4;stroke-dasharray:none"
     id="path642"
     sodipodi:nodetypes="cscccsccc" />
</svg>
