<?xml version="1.0" encoding="UTF-8" standalone="no"?>
<!-- Created with Inkscape (http://www.inkscape.org/) -->
<svg
   xmlns:dc="http://purl.org/dc/elements/1.1/"
   xmlns:cc="http://web.resource.org/cc/"
   xmlns:rdf="http://www.w3.org/1999/02/22-rdf-syntax-ns#"
   xmlns:svg="http://www.w3.org/2000/svg"
   xmlns="http://www.w3.org/2000/svg"
   xmlns:xlink="http://www.w3.org/1999/xlink"
   xmlns:sodipodi="http://sodipodi.sourceforge.net/DTD/sodipodi-0.dtd"
   xmlns:inkscape="http://www.inkscape.org/namespaces/inkscape"
   id="svg1012"
   sodipodi:version="0.32"
   width="36"
   height="36"
   sodipodi:docbase="/home/toon/unief/doctoraat/code/work/zeobuilder/share/images"
   sodipodi:docname="rotate.svg"
   inkscape:version="0.43+0.44pre1"
   version="1.0">
  <metadata
     id="metadata19">
    <rdf:RDF>
      <cc:Work
         rdf:about="">
        <dc:format>image/svg+xml</dc:format>
        <dc:type
           rdf:resource="http://purl.org/dc/dcmitype/StillImage" />
      </cc:Work>
    </rdf:RDF>
  </metadata>
  <defs
     id="defs1014">
    <linearGradient
       id="linearGradient591">
      <stop
         style="stop-color:#dcedff;stop-opacity:1;"
         offset="0.00000000"
         id="stop592" />
      <stop
         style="stop-color:#001623;stop-opacity:1;"
         offset="1.00000000"
         id="stop593" />
    </linearGradient>
    <linearGradient
       id="linearGradient1017">
      <stop
         style="stop-color:#ffff00;stop-opacity:1;"
         offset="0.00000000"
         id="stop1018" />
      <stop
         style="stop-color:#b70000;stop-opacity:1;"
         offset="1.00000000"
         id="stop1019" />
    </linearGradient>
    <radialGradient
       xlink:href="#linearGradient591"
       id="radialGradient1020"
       cx="43.065914"
       cy="51.751768"
       fx="43.065914"
       fy="51.751768"
       r="68.908516"
       gradientUnits="userSpaceOnUse"
       spreadMethod="pad"
       gradientTransform="matrix(0.316617,0,0,0.317742,-2.653309,-1.70193)" />
    <linearGradient
       xlink:href="#linearGradient1017"
       id="linearGradient589"
       x1="70.915093"
       y1="49.436141"
       x2="21.718864"
       y2="93.808175"
       spreadMethod="pad"
       gradientTransform="matrix(0.331236,0,0,0.341228,-1.611708,-3.771562)"
       gradientUnits="userSpaceOnUse" />
    <radialGradient
       xlink:href="#linearGradient1017"
       id="radialGradient590"
       cx="0.3114754"
       cy="0.703125"
       r="0.30524889"
       fx="0.3114754"
       fy="0.703125"
       spreadMethod="reflect" />
    <radialGradient
       xlink:href="#linearGradient1017"
       id="radialGradient594"
       cx="0.24590164"
       cy="0.203125"
       r="0.87337196"
       fx="0.24590164"
       fy="0.203125" />
    <linearGradient
       xlink:href="#linearGradient1017"
       id="linearGradient627"
       x1="71.625631"
       y1="13.019381"
       x2="110.90343"
       y2="55.965196"
       gradientTransform="matrix(0.337988,0,0,0.334409,-1.611708,-3.771562)"
       gradientUnits="userSpaceOnUse" />
    <radialGradient
       inkscape:collect="always"
       xlink:href="#linearGradient591"
       id="radialGradient2783"
       cx="-17.444986"
       cy="7.5963969"
       fx="-17.444986"
       fy="7.5963969"
       r="5.1923076"
       gradientUnits="userSpaceOnUse"
       gradientTransform="matrix(0.918295,1.275499,-1.284293,0.92465,7.938082,23.36996)" />
  </defs>
  <sodipodi:namedview
     id="base"
     gridspacingx="1px"
     gridspacingy="1px"
     snaptogrid="false"
     showgrid="true"
     inkscape:zoom="11.833166"
     inkscape:cx="19.079143"
     inkscape:cy="18.100725"
     inkscape:window-width="1278"
     inkscape:window-height="726"
     inkscape:window-x="0"
     inkscape:window-y="25"
     width="36px"
     height="36px"
     gridoriginx="0.5px"
     gridoriginy="0.5px"
     grid_units="px"
     gridempspacing="6"
     inkscape:grid-bbox="false"
     gridtolerance="10000"
     inkscape:grid-points="false"
     inkscape:current-layer="svg1012" />
  <path
     sodipodi:type="arc"
     style="opacity:1;color:black;fill:url(#radialGradient2783);fill-opacity:1;fill-rule:evenodd;stroke:black;stroke-width:0.38461521;stroke-linecap:butt;stroke-linejoin:miter;marker:none;marker-start:none;marker-mid:none;marker-end:none;stroke-miterlimit:4;stroke-dasharray:none;stroke-dashoffset:0;stroke-opacity:1;visibility:visible;display:inline;overflow:visible"
     id="path2777"
     sodipodi:cx="-15.5"
     sodipodi:cy="9.5"
     sodipodi:rx="5"
     sodipodi:ry="5"
     d="M -10.5 9.5 A 5 5 0 1 1  -20.5,9.5 A 5 5 0 1 1  -10.5 9.5 z"
     transform="matrix(2.6,0,0,2.6,57.8,-6.2)" />
  <path
     style="font-size:12px;fill:url(#linearGradient627);fill-rule:evenodd;stroke:black;stroke-width:0.99999952;stroke-linecap:round;stroke-linejoin:round;stroke-miterlimit:4;stroke-dasharray:none"
     d="M 33.388032,14.586695 L 35.703827,13.844218 C 34.395245,8.5424459 32.21297,4.8854564 28.789334,2.6832682 L 29.884342,0.90628438 C 27.19292,0.26801914 24.501496,0.3152644 21.810074,1.0480204 C 23.717049,2.7829887 25.075238,5.0663662 25.884638,7.486845 L 27.283373,5.4199664 C 30.747032,7.6791197 32.196485,11.014213 33.388032,14.586695 z "
     id="path1023"
     sodipodi:nodetypes="cccccccc" />
  <path
     style="font-size:12px;fill:url(#linearGradient589);fill-rule:evenodd;stroke:black;stroke-width:0.99999952;stroke-linecap:round;stroke-linejoin:round;stroke-miterlimit:4;stroke-dasharray:none"
     d="M 14.992708,3.5949827 C 11.569749,3.5053715 8.6955769,5.3351899 6.918979,7.1650088 L 9.1615385,7.7573758 C 5.813934,11.831277 5.5808196,17.39455 6.6284633,21.23193 C 2.8245117,19.697504 -2.5,12.5 3.5,7.5 L 3.5,10.5 C 0.5,14.5 -2.253615,20.64923 7.226946,24.868629 C 10.789422,35.445497 18.5,38.5 23.5,32.5 L 26.5,32.5 C 21.5,39.5 12.384634,31.909115 11.065839,26.49708 C 16.682606,28.19074 22.471104,27.896512 27.316017,24.628784 L 26.957212,27.682478 C 29.308861,25.755618 30.700133,23.554555 31.40543,19.845366 C 29.903651,19.840246 28.403206,19.585514 27.044807,18.762143 L 27.185667,21.461843 C 22.650347,24.301792 14.965892,25.291428 9.9617494,22.859239 C 8.607723,16.649028 9.0666558,11.787346 11.908564,8.3088738 L 14.211327,8.9035223 C 13.562359,8.048022 14.135221,5.1359925 14.992708,3.5949827 z "
     id="path588"
     sodipodi:nodetypes="ccccccccccccccccccc" />
</svg>
