<?xml version="1.0" encoding="UTF-8" standalone="no"?>
<!-- Created with Sodipodi ("http://www.sodipodi.com/") -->
<svg
   xmlns:dc="http://purl.org/dc/elements/1.1/"
   xmlns:cc="http://web.resource.org/cc/"
   xmlns:rdf="http://www.w3.org/1999/02/22-rdf-syntax-ns#"
   xmlns:svg="http://www.w3.org/2000/svg"
   xmlns="http://www.w3.org/2000/svg"
   xmlns:xlink="http://www.w3.org/1999/xlink"
   xmlns:sodipodi="http://sodipodi.sourceforge.net/DTD/sodipodi-0.dtd"
   xmlns:inkscape="http://www.inkscape.org/namespaces/inkscape"
   id="svg1012"
   sodipodi:version="0.32"
   width="36"
   height="36"
   sodipodi:docbase="/home/toon/unief/doctoraat/code/work/zeobuilder/share/images"
   sodipodi:docname="no_action.svg"
   inkscape:version="0.43+0.44pre1"
   version="1.0">
  <metadata
     id="metadata2038">
    <rdf:RDF>
      <cc:Work
         rdf:about="">
        <dc:format>image/svg+xml</dc:format>
        <dc:type
           rdf:resource="http://purl.org/dc/dcmitype/StillImage" />
      </cc:Work>
    </rdf:RDF>
  </metadata>
  <defs
     id="defs1014">
    <linearGradient
       id="linearGradient686">
      <stop
         style="stop-color:#ffffff;stop-opacity:1;"
         offset="0"
         id="stop687" />
      <stop
         style="stop-color:#ffffff;stop-opacity:0;"
         offset="1"
         id="stop688" />
    </linearGradient>
    <linearGradient
       id="linearGradient591">
      <stop
         style="stop-color:#eee;stop-opacity:1;"
         offset="0"
         id="stop592" />
      <stop
         style="stop-color:#a0a0a0;stop-opacity:1;"
         offset="1"
         id="stop593" />
    </linearGradient>
    <linearGradient
       id="linearGradient1017">
      <stop
         style="stop-color:#c8c8c8;stop-opacity:1;"
         offset="0"
         id="stop1018" />
      <stop
         style="stop-color:white;stop-opacity:1;"
         offset="1"
         id="stop1019" />
    </linearGradient>
    <radialGradient
       xlink:href="#linearGradient591"
       id="radialGradient1020"
       cx="0.29230779"
       cy="0.375"
       fx="0.29230779"
       fy="0.375"
       r="0.72426522"
       gradientUnits="objectBoundingBox"
       spreadMethod="pad" />
    <linearGradient
       xlink:href="#linearGradient1017"
       id="linearGradient589"
       x1="0.6693548"
       y1="0.3203125"
       x2="0.2016129"
       y2="0.7421875"
       spreadMethod="pad" />
    <radialGradient
       xlink:href="#linearGradient1017"
       id="radialGradient590"
       cx="0.3114754"
       cy="0.703125"
       r="0.30524889"
       fx="0.3114754"
       fy="0.703125"
       spreadMethod="reflect" />
    <radialGradient
       xlink:href="#linearGradient1017"
       id="radialGradient594"
       cx="0.24590164"
       cy="0.203125"
       r="0.87337196"
       fx="0.24590164"
       fy="0.203125" />
    <linearGradient
       xlink:href="#linearGradient1017"
       id="linearGradient627"
       x1="0.15254235"
       y1="0.11718751"
       x2="0.88135594"
       y2="0.9140625" />
    <linearGradient
       xlink:href="#linearGradient1017"
       id="linearGradient1053"
       x1="1.0092629"
       y1="0.5"
       x2="-0.0092591997"
       y2="0.5"
       gradientUnits="objectBoundingBox"
       spreadMethod="pad" />
    <linearGradient
       xlink:href="#linearGradient1017"
       id="linearGradient1054"
       x1="0.49166089"
       y1="0.1328125"
       x2="0.47499973"
       y2="0.84375"
       gradientUnits="objectBoundingBox"
       spreadMethod="pad" />
    <linearGradient
       xlink:href="#linearGradient1017"
       id="linearGradient1055"
       x1="0.19047618"
       y1="0.85937721"
       x2="0.66666669"
       y2="0.25000006"
       gradientUnits="objectBoundingBox"
       spreadMethod="pad" />
    <linearGradient
       inkscape:collect="always"
       xlink:href="#linearGradient1017"
       id="linearGradient3038"
       gradientUnits="userSpaceOnUse"
       gradientTransform="matrix(1.400706,0,0,1.714081,-6.928432,-33.79847)"
       spreadMethod="pad"
       x1="32.561985"
       y1="78.069092"
       x2="58.438942"
       y2="44.954559" />
    <radialGradient
       inkscape:collect="always"
       xlink:href="#linearGradient591"
       id="radialGradient3041"
       gradientUnits="userSpaceOnUse"
       gradientTransform="matrix(1.402557,0,0,1.711817,-6.928432,-33.79847)"
       spreadMethod="pad"
       cx="36.521587"
       cy="48.641666"
       fx="36.521587"
       fy="48.641666"
       r="48.44421" />
    <linearGradient
       inkscape:collect="always"
       xlink:href="#linearGradient1017"
       id="linearGradient1900"
       gradientUnits="userSpaceOnUse"
       gradientTransform="matrix(0.420741,0,0,0.514872,-3.662713,-10.73517)"
       spreadMethod="pad"
       x1="32.561985"
       y1="78.069092"
       x2="58.438942"
       y2="44.954559" />
    <radialGradient
       inkscape:collect="always"
       xlink:href="#linearGradient591"
       id="radialGradient1903"
       gradientUnits="userSpaceOnUse"
       gradientTransform="matrix(0.421297,0,0,0.514192,-3.662713,-10.73517)"
       spreadMethod="pad"
       cx="36.521587"
       cy="48.641666"
       fx="36.521587"
       fy="48.641666"
       r="48.44421" />
    <radialGradient
       inkscape:collect="always"
       xlink:href="#linearGradient591"
       id="radialGradient2797"
       gradientUnits="userSpaceOnUse"
       gradientTransform="matrix(0.421297,0,0,0.514192,-3.662713,-10.73517)"
       spreadMethod="pad"
       cx="36.521587"
       cy="48.641666"
       fx="36.521587"
       fy="48.641666"
       r="48.44421" />
    <linearGradient
       inkscape:collect="always"
       xlink:href="#linearGradient1017"
       id="linearGradient2799"
       gradientUnits="userSpaceOnUse"
       gradientTransform="matrix(0.420741,0,0,0.514872,-3.662713,-10.73517)"
       spreadMethod="pad"
       x1="32.561985"
       y1="78.069092"
       x2="58.438942"
       y2="44.954559" />
    <linearGradient
       inkscape:collect="always"
       xlink:href="#linearGradient1017"
       id="linearGradient2802"
       gradientUnits="userSpaceOnUse"
       gradientTransform="matrix(0.436753,0,0,0.534466,-3.928286,-12.42573)"
       spreadMethod="pad"
       x1="32.561985"
       y1="78.069092"
       x2="58.438942"
       y2="44.954559" />
    <radialGradient
       inkscape:collect="always"
       xlink:href="#linearGradient591"
       id="radialGradient2805"
       gradientUnits="userSpaceOnUse"
       gradientTransform="matrix(0.43733,0,0,0.533761,-3.928286,-12.42573)"
       spreadMethod="pad"
       cx="36.521587"
       cy="48.641666"
       fx="36.521587"
       fy="48.641666"
       r="48.44421" />
  </defs>
  <sodipodi:namedview
     id="base"
     gridspacingx="1px"
     gridspacingy="1px"
     snaptogrid="false"
     showgrid="true"
     inkscape:zoom="10.514253"
     inkscape:cx="16.926105"
     inkscape:cy="17.171411"
     inkscape:window-width="1278"
     inkscape:window-height="726"
     inkscape:window-x="0"
     inkscape:window-y="25"
     inkscape:current-layer="svg1012"
     width="36px"
     height="36px"
     gridoriginx="0.5px"
     grid_units="px"
     gridoriginy="0.5px"
     gridempspacing="6"
     inkscape:grid-bbox="false"
     gridtolerance="10000" />
  <g
     id="g2807"
     style="opacity:0.5">
    <path
       sodipodi:nodetypes="cssssssssss"
       id="path678"
       d="M 6.8876398,1.4863582 C 11.913228,0.74505762 22.493207,0.95247708 25.616794,1.4863582 C 29.488446,2.1175014 29.63118,5.8901181 27.801938,9.7381683 C 25.148118,16.039387 12.47904,27.619333 16.159424,27.299848 C 19.687878,26.993544 23.355067,27.065494 29.139919,27.447343 C 32.835444,27.691283 32.775486,35.574285 29.139919,34.864768 C 23.282919,33.692165 16.141388,35.471983 6.8876398,34.864768 C 3.3310523,34.621453 3.8065309,29.003624 6.4934555,25.152786 C 9.5124754,21.056863 19.534203,12.334841 18.771035,9.566729 C 18.234087,7.9416284 11.356706,8.8055852 7.6448938,8.9037799 C 3.6361444,9.0058251 3.2183777,2.01176 6.8876398,1.4863582 z "
       style="font-size:12px;opacity:1;fill:url(#radialGradient2805);fill-opacity:1;fill-rule:nonzero;stroke:#969696;stroke-width:2.00000024;stroke-linecap:round;stroke-linejoin:round;stroke-miterlimit:4;stroke-dasharray:none;stroke-opacity:1" />
    <path
       sodipodi:nodetypes="cssssscs"
       id="path689"
       d="M 21.0916,7.9490784 C 24.054961,11.538226 5.0402104,25.673221 5.9806393,31.817782 C 6.5654829,35.509288 19.028727,31.278076 28.241765,33.027964 C 30.067643,33.3828 29.729076,31.68183 28.41262,31.502876 C 18.404835,29.933863 7.4673472,34.409442 7.3642584,30.919889 C 7.1727394,24.645366 25.951595,11.196056 22.011289,7.4835335 C 19.113514,4.5446626 5.6383161,8.8097789 5.8062141,4.3400312 C 4.9889389,9.793232 19.297249,5.5672072 21.0916,7.9490784 z "
       style="opacity:1;fill:url(#linearGradient2802);fill-opacity:1;fill-rule:evenodd;stroke:none;stroke-width:1pt;stroke-linecap:butt;stroke-linejoin:miter;stroke-opacity:1" />
  </g>
  <path
     style="font-size:17.88933754px;font-style:normal;font-variant:normal;font-weight:normal;font-stretch:normal;text-align:start;line-height:125%;writing-mode:lr-tb;text-anchor:start;fill:gray;fill-opacity:1;stroke:none;stroke-width:1px;stroke-linecap:butt;stroke-linejoin:miter;stroke-opacity:1;font-family:Times New Roman"
     d="M 0,13.71506 L 2.4835553,13.71506 L 5.6197659,19.584998 L 5.6197659,13.71506 L 7.7279,13.71506 L 7.7279,22.273475 L 5.2443447,22.273475 L 2.1081342,16.403537 L 2.1081342,22.273475 L 0,22.273475 L 0,13.71506 M 13.850152,15.159615 C 13.172465,15.159622 12.646876,15.408024 12.273384,15.904822 C 11.899885,16.401632 11.713137,17.10098 11.71314,18.002867 C 11.713137,18.900939 11.899885,19.598376 12.273384,20.095178 C 12.646876,20.591985 13.172465,20.840387 13.850152,20.840385 C 14.53168,20.840387 15.059195,20.591985 15.432697,20.095178 C 15.806186,19.598376 15.992933,18.900939 15.992942,18.002867 C 15.992933,17.10098 15.806186,16.401632 15.432697,15.904822 C 15.059195,15.408024 14.53168,15.159622 13.850152,15.159615 M 13.850152,13.560286 C 15.236317,13.560295 16.322149,13.953917 17.107653,14.741152 C 17.89314,15.528403 18.285888,16.615641 18.285898,18.002867 C 18.285888,19.386279 17.89314,20.471605 17.107653,21.258847 C 16.322149,22.046092 15.236317,22.439714 13.850152,22.439714 C 12.467829,22.439714 11.381996,22.046092 10.592652,21.258847 C 9.8071546,20.471605 9.4144066,19.386279 9.4144072,18.002867 C 9.4144066,16.615641 9.8071546,15.528403 10.592652,14.741152 C 11.381996,13.953917 12.467829,13.560295 13.850152,13.560286 M 19.960853,13.71506 L 22.444409,13.71506 L 25.580618,19.584998 L 25.580618,13.71506 L 27.688753,13.71506 L 27.688753,22.273475 L 25.205197,22.273475 L 22.068987,16.403537 L 22.068987,22.273475 L 19.960853,22.273475 L 19.960853,13.71506 M 29.87197,13.71506 L 35.872934,13.71506 L 35.872934,15.383177 L 32.09562,15.383177 L 32.09562,16.976774 L 35.647681,16.976774 L 35.647681,18.644891 L 32.09562,18.644891 L 32.09562,20.605359 L 36,20.605359 L 36,22.273475 L 29.87197,22.273475 L 29.87197,13.71506"
     id="text1906" />
</svg>
