<?xml version="1.0" encoding="UTF-8" standalone="no"?>
<!DOCTYPE svg PUBLIC "-//W3C//DTD SVG 20010904//EN"
"http://www.w3.org/TR/2001/REC-SVG-20010904/DTD/svg10.dtd">
<!-- Created with Sodipodi ("http://www.sodipodi.com/") -->
<svg
   xmlns="http://www.w3.org/2000/svg"
   xmlns:sodipodi="http://sodipodi.sourceforge.net/DTD/sodipodi-0.dtd"
   xmlns:xlink="http://www.w3.org/1999/xlink"
   id="svg631"
   sodipodi:version="0.34"
   width="20mm"
   height="20mm"
   xml:space="preserve"
   sodipodi:docbase="/home/toon/unief/doctoraat/code/zeobuilder/scalable/"
   sodipodi:docname="/home/toon/unief/doctoraat/code/zeobuilder/scalable/folder.svg"><defs
   id="defs633"><linearGradient
   id="linearGradient654"><stop
   style="stop-color:#000000;stop-opacity:1;"
   offset="0"
   id="stop655" /><stop
   style="stop-color:#000000;stop-opacity:0.1647;"
   offset="1"
   id="stop656" /></linearGradient><linearGradient
   id="linearGradient645"><stop
   style="stop-color:#b3b3b3;stop-opacity:1;"
   offset="0"
   id="stop646" /><stop
   style="stop-color:#ffffff;stop-opacity:1;"
   offset="1"
   id="stop647" /></linearGradient><linearGradient
   xlink:href="#linearGradient645"
   id="linearGradient648"
   x1="5.38460165e-2"
   y1="0.9765625"
   x2="0.45384616"
   y2="-0.2578125" /><linearGradient
   xlink:href="#linearGradient645"
   id="linearGradient649"
   x1="0.9649123"
   y1="0.9453125"
   x2="1.75438486e-2"
   y2="2.3437513e-2" /><linearGradient
   xlink:href="#linearGradient654"
   id="linearGradient653"
   x1="1.46874976"
   y1="0.94531184"
   x2="0.34374994"
   y2="0.11718749" /><linearGradient
   xlink:href="#linearGradient654"
   id="linearGradient657"
   x1="-0.24324377"
   y1="0.9609375"
   x2="0.94594598"
   y2="-0.13281251" /></defs><sodipodi:namedview
   id="base"
   showgrid="false"
   snaptogrid="true"
   gridspacingx="1mm"
   gridspacingy="1mm"
   showborder="true"
   bordercolor="#000000"
   borderopacity="0.22745098" /><path
   style="font-size:12;fill:url(#linearGradient648);fill-rule:evenodd;stroke:#000000;stroke-width:2.8346;stroke-dasharray:none;stroke-linecap:round;stroke-linejoin:round;"
   d="M 60.3931 60.23621 C 46.98467 60.20758 24.96002 56.66998 7.243497 60.23621 C 7.243488 56.66998 2.646749 24.90227 3.70019 17.71653 C 17.87342 17.71653 46.21987 10.62992 63.93641 10.62992 C 63.93641 14.17323 56.84979 46.06298 60.3931 60.23621 z "
   id="path644"
   sodipodi:nodetypes="ccccc" /><path
   style="fill:url(#linearGradient653);fill-rule:evenodd;stroke:none;stroke-opacity:1;stroke-width:0.7087;stroke-linejoin:miter;stroke-linecap:butt;fill-opacity:1;stroke-dasharray:none;"
   d="M 10.7868 56.69291 L 7.243497 21.25984 L 60.3931 14.17322 L 53.30648 56.69291 L 10.7868 56.69291 z "
   id="path651"
   sodipodi:nodetypes="ccccc" /><path
   style="fill:url(#linearGradient657);fill-rule:evenodd;stroke:none;stroke-opacity:1;stroke-width:0.7087;stroke-linejoin:miter;stroke-linecap:butt;fill-opacity:1;stroke-dasharray:none;"
   d="M 14.33011 56.69291 L 14.33011 21.25984 L 56.84979 17.71653 L 53.30648 56.69291 L 14.33011 56.69291 z "
   id="path652"
   sodipodi:nodetypes="ccccc" /><path
   style="font-size:12;fill:url(#linearGradient649);fill-rule:evenodd;stroke:#000000;stroke-width:2.8346;stroke-dasharray:none;stroke-linecap:round;stroke-linejoin:round;"
   d="M 60.3931 60.23621 C 46.98467 60.18464 21.41673 56.69291 7.243497 60.23621 C 7.243497 53.1496 10.78681 35.43306 14.33011 28.34645 C 24.96003 28.34645 53.30647 31.88976 67.47972 28.34645 C 63.93641 35.43306 60.3931 53.1496 60.3931 60.23621 z "
   id="path641"
   sodipodi:nodetypes="ccccc" /></svg>
