<?xml version="1.0" encoding="UTF-8" standalone="no"?>
<!-- Created with Sodipodi ("http://www.sodipodi.com/") -->
<svg
   xmlns:dc="http://purl.org/dc/elements/1.1/"
   xmlns:cc="http://web.resource.org/cc/"
   xmlns:rdf="http://www.w3.org/1999/02/22-rdf-syntax-ns#"
   xmlns:svg="http://www.w3.org/2000/svg"
   xmlns="http://www.w3.org/2000/svg"
   xmlns:xlink="http://www.w3.org/1999/xlink"
   xmlns:sodipodi="http://sodipodi.sourceforge.net/DTD/sodipodi-0.dtd"
   xmlns:inkscape="http://www.inkscape.org/namespaces/inkscape"
   id="svg1012"
   sodipodi:version="0.32"
   width="36mm"
   height="36mm"
   sodipodi:docbase="/home/toon/unief/doctoraat/code/work/zeobuilder/share/images"
   sodipodi:docname="no_action.svg"
   inkscape:version="0.43+0.44pre1">
  <metadata
     id="metadata2038">
    <rdf:RDF>
      <cc:Work
         rdf:about="">
        <dc:format>image/svg+xml</dc:format>
        <dc:type
           rdf:resource="http://purl.org/dc/dcmitype/StillImage" />
      </cc:Work>
    </rdf:RDF>
  </metadata>
  <defs
     id="defs1014">
    <linearGradient
       id="linearGradient686">
      <stop
         style="stop-color:#ffffff;stop-opacity:1;"
         offset="0"
         id="stop687" />
      <stop
         style="stop-color:#ffffff;stop-opacity:0;"
         offset="1"
         id="stop688" />
    </linearGradient>
    <linearGradient
       id="linearGradient591">
      <stop
         style="stop-color:#eee;stop-opacity:1;"
         offset="0"
         id="stop592" />
      <stop
         style="stop-color:#a0a0a0;stop-opacity:1;"
         offset="1"
         id="stop593" />
    </linearGradient>
    <linearGradient
       id="linearGradient1017">
      <stop
         style="stop-color:#c8c8c8;stop-opacity:1;"
         offset="0"
         id="stop1018" />
      <stop
         style="stop-color:white;stop-opacity:1;"
         offset="1"
         id="stop1019" />
    </linearGradient>
    <radialGradient
       xlink:href="#linearGradient591"
       id="radialGradient1020"
       cx="0.29230779"
       cy="0.37500000"
       fx="0.29230779"
       fy="0.37500000"
       r="0.72426522"
       gradientUnits="objectBoundingBox"
       spreadMethod="pad" />
    <linearGradient
       xlink:href="#linearGradient1017"
       id="linearGradient589"
       x1="0.66935480"
       y1="0.32031250"
       x2="0.20161290"
       y2="0.74218750"
       spreadMethod="pad" />
    <radialGradient
       xlink:href="#linearGradient1017"
       id="radialGradient590"
       cx="0.31147540"
       cy="0.70312500"
       r="0.30524889"
       fx="0.31147540"
       fy="0.70312500"
       spreadMethod="reflect" />
    <radialGradient
       xlink:href="#linearGradient1017"
       id="radialGradient594"
       cx="0.24590164"
       cy="0.20312500"
       r="0.87337196"
       fx="0.24590164"
       fy="0.20312500" />
    <linearGradient
       xlink:href="#linearGradient1017"
       id="linearGradient627"
       x1="0.15254235"
       y1="0.11718751"
       x2="0.88135594"
       y2="0.91406250" />
    <linearGradient
       xlink:href="#linearGradient1017"
       id="linearGradient1053"
       x1="1.00926292"
       y1="0.50000000"
       x2="-0.00925920"
       y2="0.50000000"
       gradientUnits="objectBoundingBox"
       spreadMethod="pad" />
    <linearGradient
       xlink:href="#linearGradient1017"
       id="linearGradient1054"
       x1="0.49166089"
       y1="0.13281250"
       x2="0.47499973"
       y2="0.84375000"
       gradientUnits="objectBoundingBox"
       spreadMethod="pad" />
    <linearGradient
       xlink:href="#linearGradient1017"
       id="linearGradient1055"
       x1="0.19047618"
       y1="0.85937721"
       x2="0.66666669"
       y2="0.25000006"
       gradientUnits="objectBoundingBox"
       spreadMethod="pad" />
    <linearGradient
       inkscape:collect="always"
       xlink:href="#linearGradient1017"
       id="linearGradient3038"
       gradientUnits="userSpaceOnUse"
       gradientTransform="matrix(1.400706,0,0,1.714081,-6.928432,-33.79847)"
       spreadMethod="pad"
       x1="32.561986"
       y1="78.069091"
       x2="58.438942"
       y2="44.954559" />
    <radialGradient
       inkscape:collect="always"
       xlink:href="#linearGradient591"
       id="radialGradient3041"
       gradientUnits="userSpaceOnUse"
       gradientTransform="matrix(1.402557,0,0,1.711817,-6.928432,-33.79847)"
       spreadMethod="pad"
       cx="36.521589"
       cy="48.641666"
       fx="36.521589"
       fy="48.641666"
       r="48.444211" />
    <radialGradient
       inkscape:collect="always"
       xlink:href="#linearGradient591"
       id="radialGradient3065"
       gradientUnits="userSpaceOnUse"
       gradientTransform="matrix(1.402557,0,0,1.711817,-6.928432,-33.79847)"
       spreadMethod="pad"
       cx="36.521589"
       cy="48.641666"
       fx="36.521589"
       fy="48.641666"
       r="48.444211" />
    <linearGradient
       inkscape:collect="always"
       xlink:href="#linearGradient1017"
       id="linearGradient3067"
       gradientUnits="userSpaceOnUse"
       gradientTransform="matrix(1.400706,0,0,1.714081,-6.928432,-33.79847)"
       spreadMethod="pad"
       x1="32.561986"
       y1="78.069091"
       x2="58.438942"
       y2="44.954559" />
  </defs>
  <sodipodi:namedview
     id="base"
     gridspacingx="0.5mm"
     gridspacingy="0.5mm"
     snaptogrid="false"
     showgrid="true"
     inkscape:zoom="4.0765433"
     inkscape:cx="63.779526"
     inkscape:cy="63.779526"
     inkscape:window-width="1278"
     inkscape:window-height="726"
     inkscape:window-x="0"
     inkscape:window-y="25"
     inkscape:current-layer="svg1012" />
  <g
     id="g3061"
     transform="matrix(1.089982,0,0,1.089982,-5.739015,-5.739004)"
     style="opacity:0.51648352">
    <path
       sodipodi:nodetypes="cssssssssss"
       id="path678"
       d="M 27.759176,10.818821 C 43.876671,8.4414059 77.80758,9.1066179 87.825194,10.818821 C 100.24192,12.842952 100.69968,24.94206 94.833139,37.283089 C 86.322111,57.491644 45.69128,94.629534 57.49459,93.604918 C 68.810647,92.622571 80.57164,92.853322 99.12416,94.077946 C 110.97603,94.860284 110.78374,120.14175 99.12416,117.86627 C 80.340254,114.10563 57.436747,119.81366 27.759176,117.86627 C 16.352892,117.08594 17.877793,99.069074 26.494993,86.719104 C 36.177251,73.583123 68.3178,45.610844 65.870255,36.733268 C 64.148213,31.521431 42.091859,34.292215 30.187755,34.607134 C 17.331349,34.934402 15.991535,12.50383 27.759176,10.818821 z "
       style="font-size:12px;fill:url(#radialGradient3065);fill-opacity:1;fill-rule:nonzero;stroke:#969696;stroke-width:5.49031115;stroke-linecap:round;stroke-linejoin:round;stroke-dasharray:none;stroke-opacity:1" />
    <path
       sodipodi:nodetypes="cssssscs"
       id="path689"
       d="M 73.312507,31.545324 C 82.816263,43.056028 21.83431,88.388184 24.850347,108.09432 C 26.725991,119.9333 66.696692,106.36344 96.243703,111.97548 C 102.09945,113.11347 101.01364,107.65831 96.79165,107.08439 C 64.695818,102.05243 29.618348,116.406 29.287733,105.2147 C 28.673515,85.091766 88.89893,41.958663 76.262025,30.052281 C 66.968612,20.627068 23.752487,34.305665 24.29095,19.970797 C 21.669878,37.459685 67.557868,23.906457 73.312507,31.545324 z "
       style="fill:url(#linearGradient3067);fill-opacity:1;fill-rule:evenodd;stroke:none;stroke-width:1pt;stroke-linecap:butt;stroke-linejoin:miter;stroke-opacity:1" />
  </g>
  <path
     style="font-size:17.88933754px;font-style:normal;font-variant:normal;font-weight:normal;font-stretch:normal;text-align:start;line-height:125%;writing-mode:lr-tb;text-anchor:start;fill:gray;fill-opacity:1;stroke:none;stroke-width:1px;stroke-linecap:butt;stroke-linejoin:miter;stroke-opacity:1;font-family:Times New Roman"
     d="M 0,48.544183 L 8.830419,48.544183 L 19.98139,69.415074 L 19.98139,48.544183 L 27.476978,48.544183 L 27.476978,78.974106 L 18.646559,78.974106 L 7.4955882,58.103214 L 7.4955882,78.974106 L 0,78.974106 L 0,48.544183 M 49.244987,53.680379 C 46.835431,53.680404 44.96667,54.563612 43.638698,56.330004 C 42.310701,58.096441 41.64671,60.58301 41.64672,63.789717 C 41.64671,66.982867 42.310701,69.462641 43.638698,71.229048 C 44.96667,72.995471 46.835431,73.878678 49.244987,73.878673 C 51.668198,73.878678 53.543805,72.995471 54.871812,71.229048 C 56.199773,69.462641 56.863765,66.982867 56.863791,63.789717 C 56.863765,60.58301 56.199773,58.096441 54.871812,56.330004 C 53.543805,54.563612 51.668198,53.680404 49.244987,53.680379 M 49.244987,47.993876 C 54.173571,47.993907 58.034308,49.393451 60.827211,52.192513 C 63.620055,54.991627 65.016492,58.857358 65.016526,63.789717 C 65.016492,68.708518 63.620055,72.567455 60.827211,75.36654 C 58.034308,78.165631 54.173571,79.565175 49.244987,79.565176 C 44.330059,79.565175 40.469321,78.165631 37.662763,75.36654 C 34.869883,72.567455 33.473446,68.708518 33.473448,63.789717 C 33.473446,58.857358 34.869883,54.991627 37.662763,52.192513 C 40.469321,49.393451 44.330059,47.993907 49.244987,47.993876 M 70.971921,48.544183 L 79.802341,48.544183 L 90.953311,69.415074 L 90.953311,48.544183 L 98.4489,48.544183 L 98.4489,78.974106 L 89.618481,78.974106 L 78.467509,58.103214 L 78.467509,78.974106 L 70.971921,78.974106 L 70.971921,48.544183 M 106.21145,48.544183 L 127.54821,48.544183 L 127.54821,54.475266 L 114.11776,54.475266 L 114.11776,60.141387 L 126.74731,60.141387 L 126.74731,66.072471 L 114.11776,66.072471 L 114.11776,73.043022 L 128,73.043022 L 128,78.974106 L 106.21145,78.974106 L 106.21145,48.544183"
     id="text1906" />
</svg>
