<?xml version="1.0" encoding="UTF-8" standalone="no"?>
<!DOCTYPE svg PUBLIC "-//W3C//DTD SVG 1.0//EN"
"http://www.w3.org/TR/2001/REC-SVG-20010904/DTD/svg10.dtd">
<!-- Created with Sodipodi ("http://www.sodipodi.com/") -->
<svg
   xmlns="http://www.w3.org/2000/svg"
   xmlns:xlink="http://www.w3.org/1999/xlink"
   version="1.0"
   x="0"
   y="0"
   width="70.8661423"
   height="70.8661423"
   id="svg548">
  <defs
     id="defs550">
    <linearGradient
       id="linearGradient575">
      <stop
         style="stop-color:#ffffff;stop-opacity:1;"
         offset="0"
         id="stop576" />
      <stop
         style="stop-color:#000000;stop-opacity:1;"
         offset="1"
         id="stop577" />
    </linearGradient>
    <linearGradient
       id="linearGradient572">
      <stop
         style="stop-color:#7f0000;stop-opacity:1;"
         offset="0"
         id="stop573" />
      <stop
         style="stop-color:#ff0000;stop-opacity:1;"
         offset="1"
         id="stop574" />
    </linearGradient>
    <linearGradient
       id="linearGradient566">
      <stop
         style="stop-color:#007f00;stop-opacity:1;"
         offset="0"
         id="stop567" />
      <stop
         style="stop-color:#00ff00;stop-opacity:1;"
         offset="1"
         id="stop568" />
    </linearGradient>
    <linearGradient
       x1="0.4848485"
       y1="0.10000075"
       x2="0.4848485"
       y2="0.90000242"
       id="linearGradient569"
       xlink:href="#linearGradient575" />
    <radialGradient
       cx="0.50000006"
       cy="0.5000003"
       r="0.5"
       fx="0.50000006"
       fy="0.5000003"
       id="radialGradient570"
       xlink:href="#linearGradient566"
       gradientUnits="objectBoundingBox"
       gradientTransform="scale(0.999991,1.000009)"
       spreadMethod="pad" />
    <linearGradient
       x1="0.71311474"
       y1="0.578125"
       x2="0.71311474"
       y2="-1.4375"
       id="linearGradient571"
       xlink:href="#linearGradient575" />
    <linearGradient
       id="linearGradient578"
       xlink:href="#linearGradient575" />
    <linearGradient
       id="linearGradient655"
       xlink:href="#linearGradient575" />
    <linearGradient
       id="linearGradient656"
       xlink:href="#linearGradient575" />
    <linearGradient
       id="linearGradient657"
       xlink:href="#linearGradient575" />
    <linearGradient
       id="linearGradient658"
       xlink:href="#linearGradient575" />
    <linearGradient
       id="linearGradient659"
       xlink:href="#linearGradient575" />
  </defs>
  <path
     d="M 69.09448 1.771657 L 17.71655 1.771657 L 17.71655 1.771657 C 10.62993 7.086618 8.858272 24.80317 8.858272 42.51969 C 8.858272 58.46457 8.858272 69.0945 5.314972 69.0945 L 56.69288 69.0945 C 60.23618 69.0945 60.23618 58.46457 60.23618 42.51969 C 60.23618 24.80317 62.00788 7.086618 69.09448 1.771657 z "
     style="font-size:12;fill:url(#linearGradient571);fill-rule:evenodd;stroke:#000000;stroke-width:3.5433;stroke-linecap:square;stroke-linejoin:round;"
     id="path635" />
  <path
     d="M 17.71654 12.40158 C 17.71654 11.23763 21.00835 8.137207 21.25984 8.858266 C 21.74879 10.26016 27.88944 12.07634 28.68685 11.69974 C 30.40054 10.89038 31.11375 9.408555 33.66142 8.858266 C 35.81017 8.394146 40.3627 8.402205 42.63229 8.637819 C 44.97366 8.880887 50.80399 12.33068 51.37795 12.40158 C 53.65629 12.683 58.43888 11.14996 58.8486 10.89315 M 15.94488 21.25984 C 15.94488 20.036 20.30892 17.59043 21.25984 17.71654 C 23.43176 18.00457 27.59583 19.3273 26.5748 21.25984 C 26.0438 22.2649 30.3294 19.45499 31.88976 19.48819 C 34.44634 19.54258 32.89057 20.77636 35.43307 21.25984 C 37.35463 21.62524 39.18776 17.83908 40.74803 17.71654 C 41.45228 17.66123 44.91779 21.16746 46.06299 21.25984 C 48.51923 21.45796 46.9252 20.59484 49.6063 21.25984 C 50.60256 21.50694 53.90343 18.01435 54.92126 17.71654 M 14.17323 30.11811 C 14.68391 29.60741 16.92146 26.59091 17.71654 26.5748 C 19.33678 26.54198 23.2568 30.49978 24.80315 30.11811 C 26.40405 29.72297 26.77219 27.90059 28.34646 28.34646 C 30.83556 29.05143 31.79999 26.92812 33.66142 26.5748 C 34.66946 26.38347 35.60667 32.24846 37.20472 30.11811 C 38.76892 28.03289 42.77721 29.92774 44.29134 28.34646 C 45.24809 27.34728 52.50145 28.55642 53.1496 26.5748 C 53.34955 25.96348 47.79369 26.81362 48.34979 27.14425 M 14.17323 38.97638 C 14.85191 38.29771 19.09058 37.46728 17.71654 35.43307 C 17.29512 34.80919 20.9983 35.35027 21.25984 35.43307 C 24.32878 36.40468 24.58642 37.99647 24.80315 38.97638 C 24.80447 38.98235 27.50029 34.95421 30.11811 35.43307 C 32.65792 35.89766 31.19619 39.0633 33.66142 38.97638 C 36.15201 38.88857 38.0958 37.3536 40.74803 37.20472 C 43.51552 37.04937 43.0242 34.44005 46.06299 35.43307 C 47.03903 35.75202 50.42002 38.52295 51.37795 37.20472 C 52.3008 35.93477 53.47717 35.47879 54.92126 35.43307 M 14.17323 46.06299 C 16.37907 46.06299 19.40826 40.97567 22.03264 42.42078 C 24.48385 43.77054 24.33968 44.31213 26.57261 43.20964 C 27.83145 42.5881 31.65018 43.84454 33.34094 43.90858 C 35.18931 43.97858 37.07536 43.23059 38.74067 44.17431 C 39.42106 44.55988 41.36553 46.40174 41.89731 45.21462 C 42.74277 43.32723 44.1001 42.5504 46.28047 42.62411 C 47.9353 42.68005 47.27331 43.12126 48.5638 42.38089 C 48.97833 42.14307 50.86632 41.52504 51.34764 41.63028 C 53.0247 41.99696 54.67042 42.56297 56.3141 43.04441 M 14.17323 53.1496 C 15.35806 53.1496 18.21708 49.80965 19.48819 49.6063 C 23.28226 48.99933 22.75278 51.60721 26.5748 51.37795 C 28.4905 51.26304 29.86856 49.57385 31.88976 49.6063 C 32.81307 49.62112 32.90225 52.63148 33.66142 53.1496 C 36.23771 54.90789 42.03119 49.45372 44.29134 49.6063 C 45.19976 49.66763 49.12814 52.56382 49.6063 51.37795 C 49.99177 50.42196 51.88544 49.48586 53.1496 49.6063 "
     style="font-size:12;fill:none;fill-rule:evenodd;stroke:#4c4c4c;stroke-width:3.5433;stroke-linecap:round;stroke-linejoin:round;"
     id="path666" />
  <path
     d="M 56.69291 69.09449 C 53.1496 69.09449 53.1496 63.77953 53.1496 62.00788 C 53.1496 58.46456 54.92126 54.92126 56.69291 54.92126 L 5.314972 54.92126 L 5.314972 54.92126 C 3.543312 54.92126 1.771662 58.46456 1.771662 62.00788 C 1.771662 63.77953 1.771652 69.09449 5.314972 69.09449 L 5.314972 69.09449 L 56.69291 69.09449 z "
     style="font-size:12;fill:url(#linearGradient569);fill-rule:evenodd;stroke:#000000;stroke-width:3.5433;stroke-linecap:square;stroke-linejoin:round;"
     id="path642" />
</svg>
