<?xml version="1.0" encoding="UTF-8" standalone="no"?>
<!DOCTYPE svg PUBLIC "-//W3C//DTD SVG 20010904//EN"
"http://www.w3.org/TR/2001/REC-SVG-20010904/DTD/svg10.dtd">
<!-- Created with Inkscape (http://www.inkscape.org/) -->
<svg
   id="svg1012"
   sodipodi:version="0.32"
   width="36mm"
   height="36mm"
   sodipodi:docbase="/home/toon/unief/doctoraat/code/zeobuilder/scalable"
   sodipodi:docname="rotate.svg"
   inkscape:version="0.37"
   xmlns="http://www.w3.org/2000/svg"
   xmlns:inkscape="http://www.inkscape.org/namespaces/inkscape"
   xmlns:sodipodi="http://sodipodi.sourceforge.net/DTD/sodipodi-0.dtd"
   xmlns:xlink="http://www.w3.org/1999/xlink">
  <defs
     id="defs1014">
    <linearGradient
       id="linearGradient591">
      <stop
         style="stop-color:#dcedff;stop-opacity:1;"
         offset="0.00000000"
         id="stop592" />
      <stop
         style="stop-color:#001623;stop-opacity:1;"
         offset="1.00000000"
         id="stop593" />
    </linearGradient>
    <linearGradient
       id="linearGradient1017">
      <stop
         style="stop-color:#ffff00;stop-opacity:1;"
         offset="0.00000000"
         id="stop1018" />
      <stop
         style="stop-color:#b70000;stop-opacity:1;"
         offset="1.00000000"
         id="stop1019" />
    </linearGradient>
    <radialGradient
       xlink:href="#linearGradient591"
       id="radialGradient1020"
       cx="0.29230779"
       cy="0.37500000"
       fx="0.29230779"
       fy="0.37500000"
       r="0.72426522"
       gradientUnits="objectBoundingBox"
       spreadMethod="pad" />
    <linearGradient
       xlink:href="#linearGradient1017"
       id="linearGradient589"
       x1="0.66935480"
       y1="0.32031250"
       x2="0.20161290"
       y2="0.74218750"
       spreadMethod="pad" />
    <radialGradient
       xlink:href="#linearGradient1017"
       id="radialGradient590"
       cx="0.31147540"
       cy="0.70312500"
       r="0.30524889"
       fx="0.31147540"
       fy="0.70312500"
       spreadMethod="reflect" />
    <radialGradient
       xlink:href="#linearGradient1017"
       id="radialGradient594"
       cx="0.24590164"
       cy="0.20312500"
       r="0.87337196"
       fx="0.24590164"
       fy="0.20312500" />
    <linearGradient
       xlink:href="#linearGradient1017"
       id="linearGradient627"
       x1="0.15254235"
       y1="0.11718751"
       x2="0.88135594"
       y2="0.91406250" />
  </defs>
  <sodipodi:namedview
     id="base"
     gridspacingx="0.5mm"
     gridspacingy="0.5mm"
     snaptogrid="false"
     showgrid="true"
     inkscape:zoom="5.78163597"
     inkscape:cx="51.0236206"
     inkscape:cy="51.0236206"
     inkscape:window-width="1278"
     inkscape:window-height="726"
     inkscape:window-x="0"
     inkscape:window-y="25" />
  <path
     style="font-size:12;fill:url(#radialGradient1020);fill-rule:evenodd;stroke:#000000;stroke-width:2.83465;stroke-dasharray:none;"
     d="M 28.204779 40.700224 C 16.00231 59.300231 20.901384 85.689778 39.276948 98.303099 C 58.732389 111.65766 87.317088 104.81451 98.86989 84.111848 C 110.32532 63.583647 101.39208 35.595635 79.914416 26.234304 C 74.379442 23.82181 68.965143 22.483744 62.490562 22.384579 C 53.487641 22.723964 39.176579 23.976103 28.204779 40.700224 z "
     id="path626"
     sodipodi:nodetypes="csssss" />
  <path
     style="font-size:12;fill:url(#linearGradient627);fill-rule:evenodd;stroke:#000000;stroke-width:2.67432;stroke-linecap:round;stroke-linejoin:round;stroke-dasharray:none;"
     d="M 105.07492 54.373447 L 111.96081 52.164214 C 108.06981 36.388814 100.57581 25.758914 90.395822 19.206314 L 93.651766 13.918907 C 85.64897 12.019752 77.646174 12.16033 69.643378 14.340642 C 75.313663 19.503032 79.352161 26.29721 81.758872 33.499334 L 85.917932 27.349347 C 96.216923 34.071447 101.53192 43.743547 105.07492 54.373447 z "
     id="path1023"
     sodipodi:nodetypes="cccccccc"
     transform="matrix(1.059951,0.000000,0.000000,1.059951,3.282817,-6.527359)" />
  <path
     style="font-size:12;fill:url(#linearGradient589);fill-rule:evenodd;stroke:#000000;stroke-width:2.67432;stroke-linecap:round;stroke-linejoin:round;stroke-dasharray:none;"
     d="M 49.372316 21.919116 C 39.194338 21.652478 30.648145 27.097095 25.365528 32.541711 L 32.033656 34.304296 C 22.079738 46.426169 21.386585 62.979661 24.501697 74.397766 C 13.190857 69.832093 -3.1704084 48.251596 16.281251 33.141688 L 16.299914 42.110718 C 4.9198133 53.929559 -1.9086737 72.663947 26.28125 85.21875 C 36.874072 116.69017 61.453718 125.94175 74.306422 107.2558 L 82.551611 107.23812 C 69.681699 128.32189 41.617353 106.16768 37.695984 90.064197 C 54.397129 95.103676 71.608912 94.228198 86.014991 84.505091 L 84.948106 93.591345 C 91.940608 87.857982 96.077479 81.308727 98.174633 70.272057 C 93.852615 69.19768 89.122643 68.53125 85.208568 67.048926 L 85.627406 75.081874 C 72.141879 83.532126 49.292576 86.476783 34.413037 79.23982 C 30.386914 60.76137 31.75153 46.295449 40.201783 35.945275 L 47.048926 37.714648 C 48.231336 35.169115 51.045534 26.504382 49.372316 21.919116 z "
     id="path588"
     transform="matrix(1.059951,0.000000,0.000000,1.059951,3.282817,-6.527359)"
     sodipodi:nodetypes="ccccccccccccccccccc" />
</svg>
